<?xml version="1.0" encoding="UTF-8"?>
<svg id="a" data-name="Layer 1" xmlns="http://www.w3.org/2000/svg" viewBox="0 0 900 900">
  <defs>
    <style>
      .b {
        fill: #fff;
      }
    </style>
  </defs>
  <path class="b" d="M900,900H0V0h900v900ZM85.55,160.95h87.89V63.29h-87.89v97.66ZM85.55,421.45h87.89v-97.66h-87.89v97.66ZM217.38,291.07h87.89v-97.66h-87.89v97.66ZM217.38,421.45h87.89v-97.66h-87.89v97.66ZM85.55,560.95h87.89v-97.66h-87.89v97.66ZM217.38,560.95h87.89v-97.66h-87.89v97.66ZM362.11,560.95h87.89v-97.66h-87.89v97.66ZM362.11,723.79h87.89v-97.66h-87.89v97.66ZM493.95,560.95h87.89v-97.66h-87.89v97.66ZM493.95,723.79h87.89v-97.66h-87.89v97.66Z"/>
</svg>